<svg xmlns="http://www.w3.org/2000/svg" viewBox="0 0 640 640"><!--! Font Awesome Pro 7.0.1 by @fontawesome - https://fontawesome.com License - https://fontawesome.com/license (Commercial License) Copyright 2025 Fonticons, Inc. --><path opacity=".4" fill="currentColor" d="M240 161.9C240 152.3 247.6 144.4 257.1 144C260.9 144.3 264.5 145.9 267.3 148.7L427.3 308.7C430.4 311.8 432 315.9 432 320C432 324.1 430.4 328.2 427.3 331.3L267.3 491.3C264.5 494.1 260.9 495.7 257.1 495.9C247.6 495.5 240 487.6 240 478L240 161.9z"/><path fill="currentColor" d="M425.4 304C429.6 308.2 432 314 432 320C432 326 429.6 331.8 425.4 336L270.6 490.7C267.2 494.1 262.7 496 257.9 496C248 496 240 488 240 478.1L240 161.9C240 152 248 144 257.9 144C262.7 144 267.2 145.9 270.6 149.3L425.4 304zM436.7 292.7L281.9 137.9C275.6 131.6 266.9 128 257.9 128C239.2 128 224 143.2 224 161.9L224 478C224 496.7 239.2 511.9 257.9 511.9C266.9 511.9 275.5 508.3 281.9 502L436.7 347.3C443.9 340.1 448 330.2 448 320C448 309.8 443.9 299.9 436.7 292.7z"/></svg>