<svg xmlns="http://www.w3.org/2000/svg" viewBox="0 0 640 640"><!--! Font Awesome Pro 7.0.1 by @fontawesome - https://fontawesome.com License - https://fontawesome.com/license (Commercial License) Copyright 2025 Fonticons, Inc. --><path opacity=".4" fill="currentColor" d="M144 382.9C144.6 392.6 152.4 400 161.9 400L478 400C487.5 400 495.3 392.6 495.9 382.9C495.6 379.1 494 375.5 491.3 372.7L331.3 212.7C325.1 206.5 314.9 206.5 308.7 212.7L148.7 372.7C145.9 375.5 144.3 379.2 144 382.9z"/><path fill="currentColor" d="M304 214.6C308.2 210.4 314 208 320 208C326 208 331.8 210.4 336 214.6L490.7 369.4C494.1 372.8 496 377.3 496 382.1C496 392 488 400 478.1 400L161.9 400C152 400 144 392 144 382.1C144 377.3 145.9 372.8 149.3 369.4L304 214.6zM292.7 203.3L137.9 358.1C131.5 364.5 128 373.1 128 382.1C128 400.8 143.2 416 161.9 416L478 416C496.7 416 511.9 400.8 511.9 382.1C511.9 373.1 508.3 364.5 502 358.1L347.3 203.3C340.1 196.1 330.2 192 320 192C309.8 192 299.9 196.1 292.7 203.3z"/></svg>