<svg xmlns="http://www.w3.org/2000/svg" viewBox="0 0 640 640"><!--! Font Awesome Pro 7.0.1 by @fontawesome - https://fontawesome.com License - https://fontawesome.com/license (Commercial License) Copyright 2025 Fonticons, Inc. --><path opacity=".4" fill="currentColor" d="M144 257.1C144.3 260.9 145.9 264.5 148.7 267.3L308.7 427.3C314.9 433.5 325.1 433.5 331.3 427.3L491.3 267.3C494.1 264.5 495.7 260.9 495.9 257.1C495.3 247.4 487.5 240 478 240L161.9 240C152.4 240 144.6 247.4 144 257.1z"/><path fill="currentColor" d="M304 425.4C308.2 429.6 314 432 320 432C326 432 331.8 429.6 336 425.4L490.7 270.6C494.1 267.2 496 262.7 496 257.9C496 248 488 240 478.1 240L161.9 240C152 240 144 248 144 257.9C144 262.7 145.9 267.2 149.3 270.6L304 425.4zM292.7 436.7L137.9 281.9C131.5 275.5 128 266.9 128 257.9C128 239.2 143.2 224 161.9 224L478 224C496.7 224 511.9 239.2 511.9 257.9C511.9 266.9 508.3 275.5 502 281.9L347.3 436.7C340.1 443.9 330.2 448 320 448C309.8 448 299.9 443.9 292.7 436.7z"/></svg>