<svg xmlns="http://www.w3.org/2000/svg" viewBox="0 0 640 640"><!--! Font Awesome Pro 7.0.1 by @fontawesome - https://fontawesome.com License - https://fontawesome.com/license (Commercial License) Copyright 2025 Fonticons, Inc. --><path opacity=".4" fill="currentColor" d="M208 319.9C208 324.1 209.6 328.2 212.7 331.3L372.7 491.3C375.5 494.1 379.1 495.7 382.9 495.9C392.4 495.5 400 487.6 400 478L400 161.9C400 152.3 392.4 144.4 382.9 144C379.1 144.3 375.5 145.9 372.7 148.7L212.7 308.7C209.6 311.8 208 315.9 208 320z"/><path fill="currentColor" d="M214.6 336C210.4 331.8 208 326 208 320C208 314 210.4 308.2 214.6 304L369.4 149.3C372.8 145.9 377.3 144 382.1 144C392 144 400 152 400 161.9L400 478C400 487.9 392 495.9 382.1 495.9C377.3 495.9 372.8 494 369.4 490.6L214.6 336zM203.3 347.3L358.1 502.1C364.5 508.5 373.1 512 382.1 512C400.8 512 416 496.8 416 478.1L416 162C416 143.3 400.8 128.1 382.1 128.1C373.1 128.1 364.5 131.7 358.1 138L203.3 292.7C196.1 299.9 192 309.8 192 320C192 330.2 196.1 340.1 203.3 347.3z"/></svg>