<svg xmlns="http://www.w3.org/2000/svg" viewBox="0 0 640 640"><!--! Font Awesome Pro 7.0.1 by @fontawesome - https://fontawesome.com License - https://fontawesome.com/license (Commercial License) Copyright 2025 Fonticons, Inc. --><path opacity=".4" fill="currentColor" d="M80.3 176.4L168.4 158.6C171.6 158 174 155.5 174.7 152.3L192.4 64.3L267.6 113.9C268.9 114.8 270.5 115.2 272 115.2C273.5 115.2 275.1 114.8 276.4 113.9L351.5 64.3L369.4 152.4C370 155.6 372.5 158 375.7 158.7L463.8 176.5L442.7 208.5C439.2 208.2 435.7 208.1 432.1 208.1C400.9 208.1 372.2 219.3 350 237.9C341.8 202.5 310 176.1 272.1 176.1C227.9 176.1 192.1 211.9 192.1 256.1C192.1 267.7 194.6 278.7 199 288.7C174.4 302.1 154.5 322.9 142 348.1L80.3 335.4L130 260.5C131.8 257.8 131.8 254.3 130 251.7L80.3 176.4zM144 492C144 463 162.2 438.1 187.9 428.4C191.5 427.1 193.6 423.4 193 419.6C186 376.8 220.3 336 264.1 336C286.6 336 306.7 346.3 319.9 362.5C322.2 365.3 326.1 366.2 329.3 364.8C365.7 348.6 409.6 377.8 408 418.3C407.8 422 410.3 425.4 413.9 426.3C442.8 434.1 464 460.6 464 491.9C464 529.4 433.6 559.8 396.1 559.8L211.9 559.8C174.4 559.8 144 529.4 144 491.9zM380.6 297.9C392.3 282.2 411 272 432 272C462.9 272 488.7 293.9 494.7 323C495.2 325.6 497 327.7 499.4 328.7C501.8 329.7 504.5 329.5 506.8 328.2C515.3 323 525.3 319.9 536.1 319.9C567 319.9 592.1 345 592.1 375.9C592.1 406.8 567 431.9 536.1 431.9L513.7 431.9C503.3 411.6 487.9 394.4 469.1 381.9C458.9 339.1 424.2 305.9 380.7 297.8z"/><path fill="currentColor" d="M463.7 176.4L442.6 208.4C448.6 208.9 454.5 209.8 460.2 211.1L477.3 185.3C480.5 180.5 480.3 174.8 478.5 170.5C476.7 166.2 472.8 162 467.1 160.9L384 144L367.2 60.8C366.1 55.1 361.9 51.2 357.6 49.4C353.3 47.6 347.6 47.4 342.8 50.6L272 97.6L201.3 50.7C196.5 47.5 190.8 47.7 186.5 49.5C182.2 51.3 178 55.1 176.8 60.8L160 144L76.8 160.8C71.1 162 67.2 166.1 65.4 170.4C63.6 174.7 63.4 180.4 66.6 185.2L113.6 256L66.7 326.7C63.5 331.5 63.7 337.2 65.5 341.5C67.3 345.8 71.2 350 76.9 351.1L135.7 363C137.5 357.8 139.6 352.8 142 347.9L80.3 335.2L130 260.3C131.8 257.6 131.8 254.1 130 251.5L80.4 176.4L168.5 158.6C171.7 158 174.1 155.5 174.8 152.3L192.4 64.3L267.6 113.9C268.9 114.8 270.5 115.2 272 115.2C273.5 115.2 275.1 114.8 276.4 113.9L351.5 64.3L369.4 152.4C370 155.6 372.5 158 375.7 158.7L463.8 176.5zM272 192C305.8 192 333.5 218.3 335.8 251.5C340.1 246.6 344.8 242 349.9 237.8C341.7 202.4 309.9 176 272 176C227.8 176 192 211.8 192 256C192 267.6 194.5 278.6 198.9 288.6C203.6 286.1 208.4 283.8 213.4 281.8C209.9 273.9 208 265.2 208 256.1C208 220.8 236.7 192.1 272 192.1zM380.6 297.9C392.3 282.2 411 272 432 272C462.9 272 488.7 293.9 494.7 323C495.2 325.6 497 327.7 499.4 328.7C501.8 329.7 504.5 329.5 506.8 328.2C515.3 323 525.3 319.9 536.1 319.9C567 319.9 592.1 345 592.1 375.9C592.1 406.8 567 431.9 536.1 431.9L513.7 431.9C516.3 437 518.6 442.4 520.6 447.9L536.1 447.9C575.9 447.9 608.1 415.7 608.1 375.9C608.1 336.1 575.9 303.9 536.1 303.9C526 303.9 516.4 306 507.7 309.7C496.9 278.4 467.1 255.9 432.1 255.9C402.5 255.9 376.6 272 362.8 295.9C368.9 296 374.9 296.7 380.7 297.8zM264 336C286.5 336 306.6 346.3 319.8 362.5C322.1 365.3 326 366.2 329.2 364.8C365.6 348.6 409.5 377.8 407.9 418.3C407.7 422 410.2 425.4 413.8 426.3C442.7 434.1 463.9 460.6 463.9 491.9C463.9 529.4 433.5 559.8 396 559.8L211.8 559.8C174.3 559.8 143.9 529.4 143.9 491.9C143.9 462.9 162.1 438 187.8 428.3C191.4 427 193.5 423.3 192.9 419.5C185.9 376.7 220.2 335.9 264 335.9zM176.4 415.9C147.8 429.3 128 458.3 128 492C128 538.3 165.6 575.9 211.9 575.9L396.1 575.9C442.4 575.9 480 538.3 480 492C480 455.4 456.6 424.3 423.9 412.8C421.7 365.6 372.3 332.9 328.3 348C312.2 330.8 289.3 320 263.9 320C212.4 320 171.9 365.8 176.3 415.9z"/></svg>