<svg xmlns="http://www.w3.org/2000/svg" viewBox="0 0 640 640"><!--! Font Awesome Pro 7.0.1 by @fontawesome - https://fontawesome.com License - https://fontawesome.com/license (Commercial License) Copyright 2025 Fonticons, Inc. --><path opacity=".4" fill="currentColor" d="M48.3 176.4L136.4 158.6C139.6 158 142 155.5 142.7 152.3L160.4 64.3L235.6 113.9C236.9 114.8 238.5 115.2 240 115.2C241.5 115.2 243.1 114.8 244.4 113.9L319.5 64.3L335.5 143.5C313.2 152.1 294.3 167.7 281.5 187.7C269.4 180.3 255.1 176 239.9 176C195.7 176 159.9 211.8 159.9 256C159.9 288.8 179.7 317 207.9 329.4C207.9 330.3 207.9 331.2 207.9 332C207.9 358 215.4 382.3 228.4 402.8L160.4 447.8L142.5 359.7C141.9 356.5 139.4 354.1 136.2 353.4L48 335.3L97.7 260.4C99.5 257.7 99.5 254.2 97.7 251.6L48.3 176.4zM272 332C272 300.6 293.2 274.2 322.1 266.4C325.7 265.4 328.2 262.1 328 258.4C326.4 217.8 370.3 188.7 406.7 204.9C410 206.4 413.9 205.4 416.1 202.6C429.3 186.4 449.4 176.1 471.9 176.1C515.6 176.1 549.9 216.9 543 259.7C542.4 263.5 544.5 267.1 548.1 268.5C573.8 278.2 592 303.1 592 332.1C592 369.6 561.6 400 524.1 400L339.9 400C302.4 400 272 369.6 272 332.1z"/><path fill="currentColor" d="M169.3 461.3L238 415.7C234.6 411.6 231.5 407.2 228.6 402.7L160.6 447.7L142.7 359.6C142.1 356.4 139.6 354 136.4 353.3L48.2 335.2L97.9 260.3C99.7 257.6 99.7 254.1 97.9 251.5L48.3 176.4L136.4 158.6C139.6 158 142 155.5 142.7 152.3L160.4 64.3L235.6 113.9C236.9 114.8 238.5 115.2 240 115.2C241.5 115.2 243.1 114.8 244.4 113.9L319.5 64.3L335.5 143.5C340.5 141.6 345.6 140 350.9 138.8L335.1 60.8C334 55.1 329.8 51.2 325.5 49.4C321.2 47.6 315.5 47.4 310.7 50.6L240 97.6L169.3 50.7C164.5 47.5 158.8 47.7 154.5 49.5C150.2 51.3 146 55.1 144.8 60.8L128 144L44.8 160.8C39.1 162 35.2 166.1 33.4 170.4C31.6 174.7 31.4 180.4 34.6 185.2L81.6 256L34.7 326.7C31.5 331.5 31.7 337.2 33.5 341.5C35.3 345.8 39.2 350 44.9 351.1L128 368L144.8 451.2C146 456.9 150.1 460.8 154.4 462.6C158.7 464.4 164.4 464.6 169.2 461.4zM240 176C195.8 176 160 211.8 160 256C160 288.8 179.8 317 208 329.4C208.1 323.6 208.6 317.9 209.4 312.3C189.5 301.5 175.9 280.3 175.9 256C175.9 220.7 204.6 192 239.9 192C252.4 192 264 195.6 273.9 201.7C276.1 196.8 278.7 192.1 281.6 187.6C269.5 180.2 255.2 175.9 240 175.9zM472 176C515.7 176 550 216.8 543.1 259.6C542.5 263.4 544.6 267 548.2 268.4C573.9 278.1 592.1 303 592.1 332C592.1 369.5 561.7 399.9 524.2 399.9L340 399.9C302.5 399.9 272.1 369.5 272.1 332C272.1 300.6 293.3 274.2 322.2 266.4C325.8 265.4 328.3 262.1 328.1 258.4C326.5 217.8 370.4 188.7 406.8 204.9C410.1 206.4 414 205.4 416.2 202.6C429.4 186.4 449.5 176.1 472 176.1zM559.6 255.9C564 205.8 523.5 160 472 160C446.6 160 423.7 170.8 407.6 188C363.7 172.9 314.3 205.6 312 252.8C279.3 264.3 255.9 295.4 255.9 332C255.9 378.3 293.5 415.9 339.8 415.9L524 415.9C570.3 415.9 607.9 378.3 607.9 332C607.9 298.3 588.1 269.3 559.5 255.9zM322.3 474.4C323.7 470.2 321.4 465.7 317.2 464.3C313 462.9 308.5 465.2 307.1 469.4L275 565.5C273.6 569.7 275.9 574.2 280.1 575.6C284.3 577 288.8 574.7 290.2 570.5L322.3 474.4zM450.3 474.4C451.7 470.2 449.4 465.7 445.2 464.3C441 462.9 436.5 465.2 435.1 469.4L403 565.5C401.6 569.7 403.9 574.2 408.1 575.6C412.3 577 416.8 574.7 418.2 570.5L450.3 474.4zM578.3 474.4C579.7 470.2 577.4 465.7 573.2 464.3C569 462.9 564.5 465.2 563.1 469.4L531 565.5C529.6 569.7 531.9 574.2 536.1 575.6C540.3 577 544.8 574.7 546.2 570.5L578.3 474.4z"/></svg>