<svg xmlns="http://www.w3.org/2000/svg" viewBox="0 0 640 640"><!--! Font Awesome Pro 7.0.1 by @fontawesome - https://fontawesome.com License - https://fontawesome.com/license (Commercial License) Copyright 2025 Fonticons, Inc. --><path opacity=".4" fill="currentColor" d="M28.3 218.4C28.4 217.8 28.6 216.9 28.9 216C29.9 213.6 31.9 211.7 34.5 211.1L142.9 189.2C146.1 188.6 148.5 186.1 149.2 182.9L171.1 74.5C171.6 71.9 173.5 69.9 176 68.9C178.5 67.9 181.2 68 183.4 69.4L275.6 130.6C278.3 132.4 281.8 132.4 284.4 130.6L376.6 69.4C378.8 67.9 381.6 67.9 384 68.9C386.4 69.9 388.3 71.9 388.9 74.5L399.7 128.1C359.6 144.9 325.9 173.9 303.2 210.4C295.7 208.8 288 208 280 208C218.1 208 168 258.1 168 320C168 381.9 218.1 432 280 432C287.9 432 295.7 431.2 303.2 429.6C325.9 466.2 359.6 495.2 399.7 511.9L388.9 565.5C388.4 568.1 386.5 570.1 384 571.1C381.5 572.1 378.8 572 376.6 570.6L284.4 509.4C281.7 507.6 278.2 507.6 275.6 509.4L183.4 570.6C181.2 572.1 178.4 572.1 176 571.1C173.6 570.1 171.7 568.1 171.1 565.5L149.2 457.1C148.6 453.9 146.1 451.5 142.9 450.8L34.5 428.9C31.9 428.4 29.9 426.5 28.9 424C28.6 423.2 28.3 422.3 28.3 421.6C28.3 421.1 28.3 420.5 28.3 420C28.4 418.8 28.8 417.6 29.5 416.6L90.7 324.4C92.5 321.7 92.5 318.2 90.7 315.6L29.4 223.4C28.7 222.4 28.3 221.2 28.2 220C28.2 219.5 28.2 218.9 28.2 218.4z"/><path fill="currentColor" d="M376.6 69.4C378.8 67.9 381.6 67.9 384 68.9C386.4 69.9 388.3 71.9 388.9 74.5L399.7 128.1C404.7 126 409.7 124.1 414.9 122.4L404.6 71.3C402.8 62.5 396.5 56.7 390.2 54.1C383.9 51.5 375.3 51.1 367.8 56.1L280 114.3L192.2 56.1L192.2 56.1C184.8 51.2 176.2 51.5 169.8 54.1C163.4 56.7 157.2 62.6 155.4 71.3L134.6 174.6L31.3 195.4C22.5 197.2 16.7 203.5 14.1 209.8C11.5 216.1 11.1 224.7 16.1 232.2L74.3 320L16.1 407.8C11.2 415.2 11.5 423.8 14.1 430.2L14.1 430.2C16.7 436.5 22.5 442.8 31.3 444.6L134.5 465.5L155.4 568.7C157.2 577.5 163.5 583.3 169.8 585.9C176.1 588.5 184.7 588.9 192.2 583.9L280 525.7L367.8 583.9C375.2 588.8 383.8 588.5 390.2 585.9C396.6 583.3 402.8 577.5 404.6 568.7L414.9 517.6C409.7 515.9 404.7 514 399.7 511.9L388.9 565.5C388.4 568.1 386.5 570.1 384 571.1C381.5 572.1 378.8 572 376.6 570.6L284.4 509.4C281.7 507.6 278.2 507.6 275.6 509.4L183.4 570.6C181.2 572.1 178.4 572.1 176 571.1C173.6 570.1 171.7 568.1 171.1 565.5L149.2 457.1C148.6 453.9 146.1 451.5 142.9 450.8L34.5 428.9C31.9 428.4 29.9 426.5 28.9 424C27.9 421.5 28 418.8 29.4 416.6L90.6 324.4C92.4 321.7 92.4 318.2 90.6 315.6L29.4 223.4C27.9 221.2 27.9 218.4 28.9 216C29.9 213.6 31.9 211.7 34.5 211.1L142.9 189.2C146.1 188.6 148.5 186.1 149.2 182.9L171.1 74.5C171.6 71.9 173.5 69.9 176 68.9C178.5 67.9 181.2 68 183.4 69.4L275.6 130.6C278.3 132.4 281.8 132.4 284.4 130.6L376.6 69.4zM280 208C218.1 208 168 258.1 168 320C168 381.9 218.1 432 280 432C287.9 432 295.7 431.2 303.2 429.6C300.2 424.8 297.4 419.9 294.9 414.9C290.1 415.6 285.1 416 280.1 416C227.1 416 184.1 373 184.1 320C184.1 267 227.1 224 280.1 224C285.1 224 290.1 224.4 294.9 225.1C297.5 220.1 300.3 215.1 303.2 210.4C295.7 208.8 288 208 280 208zM336 320C336 240.5 400.5 176 480 176C559.5 176 624 240.5 624 320C624 399.5 559.5 464 480 464C400.5 464 336 399.5 336 320zM640 320C640 231.6 568.4 160 480 160C391.6 160 320 231.6 320 320C320 408.4 391.6 480 480 480C568.4 480 640 408.4 640 320z"/></svg>