<svg xmlns="http://www.w3.org/2000/svg" viewBox="0 0 640 640"><!--! Font Awesome Pro 7.0.1 by @fontawesome - https://fontawesome.com License - https://fontawesome.com/license (Commercial License) Copyright 2025 Fonticons, Inc. --><path opacity=".4" fill="currentColor" d="M69.2 216C68.2 218.4 68.3 221.2 69.7 223.4L130.9 315.6C132.7 318.3 132.7 321.8 130.9 324.4L69.7 416.6C68.2 418.8 68.2 421.6 69.2 424C70.2 426.4 72.2 428.3 74.8 428.9L183.2 450.8C186.4 451.4 188.8 453.9 189.5 457.1L211.4 565.5C211.9 568.1 213.8 570.1 216.3 571.1C218.8 572.1 221.5 572 223.7 570.6L315.9 509.4C318.6 507.6 322.1 507.6 324.7 509.4L416.9 570.6C419.1 572.1 421.9 572.1 424.3 571.1C426.7 570.1 428.6 568.1 429.2 565.5L451.1 457.1C451.7 453.9 454.2 451.5 457.4 450.8L565.8 428.9C568.4 428.4 570.4 426.5 571.4 424C572.4 421.5 572.3 418.8 570.9 416.6L509.7 324.4C507.9 321.7 507.9 318.2 509.7 315.6L570.9 223.4C572.4 221.2 572.4 218.4 571.4 216C570.4 213.6 568.4 211.7 565.8 211.1L457.3 189.2C454.1 188.6 451.7 186.1 451 182.9L429.1 74.5C428.6 71.9 426.7 69.9 424.2 68.9C421.7 67.9 419 68 416.8 69.4L324.7 130.6C322 132.4 318.5 132.4 315.9 130.6L223.7 69.4C221.5 67.9 218.7 67.9 216.3 68.9C213.9 69.9 212 71.9 211.4 74.5L189.5 182.9C188.9 186.1 186.4 188.5 183.2 189.2L74.8 211.1C72.2 211.6 70.2 213.5 69.2 216zM431.7 320C431.7 381.7 381.7 431.8 320 431.8C258.2 431.8 208.2 381.7 208.2 320C208.2 258.3 258.2 208.3 320 208.3C381.7 208.3 431.7 258.3 431.7 320zM320.3 296C320.3 335.8 352.5 368 392.3 368C396.3 368 400.2 367.7 404 367.1C411.8 353.2 416.3 337.1 416.3 320C416.3 280.8 392.8 247 359 232.1C336 244.1 320.3 268.2 320.3 296z"/><path fill="currentColor" d="M424.3 68.9C421.9 67.9 419.1 68 416.9 69.4L324.7 130.6C322 132.4 318.5 132.4 315.9 130.6L223.7 69.4C221.5 67.9 218.7 67.9 216.3 68.9C213.9 69.9 212 71.9 211.4 74.5L189.5 182.9C188.9 186.1 186.4 188.5 183.2 189.2L74.8 211.1C72.2 211.6 70.2 213.5 69.2 216C68.2 218.5 68.3 221.2 69.7 223.4L130.9 315.6C132.7 318.3 132.7 321.8 130.9 324.4L69.7 416.6C68.2 418.8 68.2 421.6 69.2 424C70.2 426.4 72.2 428.3 74.8 428.9L183.2 450.8C186.4 451.4 188.8 453.9 189.5 457.1L211.4 565.5C211.9 568.1 213.8 570.1 216.3 571.1C218.8 572.1 221.5 572 223.7 570.6L315.9 509.4C318.6 507.6 322.1 507.6 324.7 509.4L416.9 570.6C419.1 572.1 421.9 572.1 424.3 571.1C426.7 570.1 428.6 568.1 429.2 565.5L451.1 457.1C451.7 453.9 454.2 451.5 457.4 450.8L565.8 428.9C568.4 428.4 570.4 426.5 571.4 424C572.4 421.5 572.3 418.8 570.9 416.6L509.7 324.4C507.9 321.7 507.9 318.2 509.7 315.6L570.9 223.4C572.4 221.2 572.4 218.4 571.4 216C570.4 213.6 568.4 211.7 565.8 211.1L457.3 189.2C454.1 188.6 451.7 186.1 451 182.9L429.1 74.5C428.6 71.9 426.7 69.9 424.2 68.9zM408 56.1C415.4 51.2 424 51.5 430.4 54.1C436.8 56.7 443 62.6 444.8 71.3L465.7 174.5L568.9 195.4C577.7 197.2 583.5 203.5 586.1 209.8C588.7 216.1 589.1 224.7 584.1 232.2L525.9 320L584.1 407.8C589 415.2 588.7 423.8 586.1 430.2C583.5 436.6 577.7 442.8 568.9 444.6L465.7 465.5L444.8 568.7C443 577.5 436.7 583.3 430.4 585.9C424.1 588.5 415.5 588.9 408 583.9L320.2 525.7L232.4 583.9C225 588.8 216.4 588.5 210 585.9C203.6 583.3 197.3 577.5 195.6 568.7L174.8 465.4L71.6 444.5C62.8 442.7 57 436.4 54.4 430.1L54.4 430.1C51.8 423.8 51.4 415.2 56.4 407.7L114.6 320L56.4 232.2C51.5 224.8 51.8 216.2 54.4 209.8C57 203.4 62.8 197.2 71.6 195.4L174.8 174.6L195.7 71.3C197.5 62.5 203.8 56.7 210.1 54.1C216.4 51.5 225 51.1 232.5 56.1L232.5 56.1L320.3 114.3L408.1 56.1zM207.7 320C206.5 279.1 227.6 240.8 262.8 220C298.1 199.1 341.8 199.1 377.1 220C412.3 240.8 433.4 279.1 432.2 320C433.4 360.9 412.3 399.2 377.1 420C341.8 440.9 298.1 440.9 262.8 420C227.6 399.2 206.5 360.9 207.7 320zM403.9 367C411.7 353.1 416.2 337 416.2 319.9C416.2 280.7 392.7 246.9 358.9 232C335.9 244 320.2 268.1 320.2 295.9C320.2 335.7 352.4 367.9 392.2 367.9C396.2 367.9 400.1 367.6 403.9 367zM339.1 225.8C333 224.6 326.7 223.9 320.2 223.9C267.2 223.9 224.2 266.9 224.2 319.9C224.2 372.9 267.2 415.9 320.2 415.9C348.6 415.9 374.2 403.5 391.7 383.9C343.3 383.7 304.2 344.4 304.2 295.9C304.2 267.3 317.9 241.8 339.1 225.7z"/></svg>