<svg xmlns="http://www.w3.org/2000/svg" viewBox="0 0 640 640"><!--! Font Awesome Pro 7.0.1 by @fontawesome - https://fontawesome.com License - https://fontawesome.com/license (Commercial License) Copyright 2025 Fonticons, Inc. --><path opacity=".4" fill="currentColor" d="M50.1 231.9L95.9 312L100.4 319.9L95.9 327.8L50.1 407.9C46.5 414.2 47.6 422.1 52.7 427.2C57.8 432.3 65.8 433.3 72 429.7L161.7 377.4L173.4 370.6L182.1 381C193.7 395 207.4 409.1 222.8 422.2C260.2 453.7 309.5 480 368 480C426.5 480 475.8 453.8 513.1 422.2C550.4 390.7 576.9 353 590.2 327.3C592.6 322.7 592.6 317.2 590.2 312.6C577 286.9 550.4 249.2 513.1 217.7C475.7 186.2 426.4 159.9 368 159.9C309.6 159.9 260.2 186.1 222.8 217.7C207.4 230.7 193.7 244.9 182.1 258.9L173.4 269.3L161.7 262.5L72 210.2C65.7 206.6 57.8 207.6 52.7 212.7C47.6 217.8 46.5 225.7 50.1 232zM480 320C480 337.7 465.7 352 448 352C430.3 352 416 337.7 416 320C416 302.3 430.3 288 448 288C465.7 288 480 302.3 480 320z"/><path fill="currentColor" d="M173.5 370.7L161.8 377.5L72.1 429.8C65.8 433.4 57.9 432.4 52.8 427.3C47.7 422.2 46.6 414.3 50.2 408L96 327.9L100.5 320L96 312.1L50.2 232C46.6 225.7 47.7 217.8 52.8 212.7C57.9 207.6 65.9 206.6 72.1 210.2L161.8 262.5L173.5 269.3L182.2 258.9C193.8 244.9 207.5 230.8 222.9 217.7C260.3 186.2 309.6 159.9 368.1 159.9C426.6 159.9 475.9 186.1 513.2 217.7C550.5 249.2 577 286.9 590.3 312.6C592.7 317.2 592.7 322.7 590.3 327.3C577.1 353 550.5 390.7 513.2 422.2C475.8 453.7 426.5 480 368.1 480C309.7 480 260.3 453.8 222.9 422.2C207.5 409.2 193.8 395 182.2 381L173.5 370.6zM169.9 391.3C182.1 405.9 196.4 420.7 212.6 434.4C251.8 467.5 304.6 495.9 368.1 495.9C431.6 495.9 484.4 467.4 523.6 434.4C562.7 401.4 590.5 362 604.6 334.6C609.3 325.4 609.3 314.5 604.6 305.3C590.5 277.9 562.7 238.5 523.6 205.5C484.4 172.4 431.6 144 368.1 144C304.6 144 251.8 172.5 212.6 205.5C196.4 219.2 182.1 234 169.9 248.6L80.1 196.4C67.6 189.1 51.7 191.1 41.4 201.3C31.1 211.5 29 227.3 36.1 239.9L82 320L36.2 400.1C29 412.7 31.2 428.5 41.5 438.7C51.8 448.9 67.6 450.9 80.2 443.6L169.9 391.3zM480 320C480 302.3 465.7 288 448 288C430.3 288 416 302.3 416 320C416 337.7 430.3 352 448 352C465.7 352 480 337.7 480 320zM448 304C456.8 304 464 311.2 464 320C464 328.8 456.8 336 448 336C439.2 336 432 328.8 432 320C432 311.2 439.2 304 448 304z"/></svg>