<svg xmlns="http://www.w3.org/2000/svg" viewBox="0 0 640 640"><!--! Font Awesome Pro 7.0.1 by @fontawesome - https://fontawesome.com License - https://fontawesome.com/license (Commercial License) Copyright 2025 Fonticons, Inc. --><path opacity=".4" fill="currentColor" d="M151.2 208L155.7 208L202.3 259.2L151.2 208zM177.4 208L462.6 208L320 364.9L177.4 208zM440.7 255.9L484.3 208L488.6 208L440.8 255.9z"/><path fill="currentColor" d="M72 96C68.8 96 66 97.9 64.7 100.8C63.4 103.7 64 107 66.1 109.4L144 195.1L144 208L155.7 208L312 379.9L312 560L200 560C195.6 560 192 563.6 192 568C192 572.4 195.6 576 200 576L440 576C444.4 576 448 572.4 448 568C448 563.6 444.4 560 440 560L328 560L328 379.9L484.3 208L496 208L496 195.1L573.9 109.4C576 107.1 576.6 103.7 575.3 100.8C574 97.9 571.2 96 568 96L72 96zM477.2 192L162.8 192L90.1 112L549.9 112L477.2 192zM177.4 208L462.6 208L320 364.9L177.4 208z"/></svg>