<svg xmlns="http://www.w3.org/2000/svg" viewBox="0 0 640 640"><!--! Font Awesome Pro 7.0.1 by @fontawesome - https://fontawesome.com License - https://fontawesome.com/license (Commercial License) Copyright 2025 Fonticons, Inc. --><path opacity=".4" fill="currentColor" d="M68.9 216C69.9 213.6 71.9 211.7 74.5 211.1L182.9 189.2C186.1 188.6 188.5 186.1 189.2 182.9L211.1 74.5C211.6 71.9 213.5 69.9 216 68.9C218.5 67.9 221.2 68 223.4 69.4L315.6 130.6C318.3 132.4 321.8 132.4 324.4 130.6L416.6 69.4C418.8 67.9 421.6 67.9 424 68.9C426.4 69.9 428.3 71.9 428.9 74.5L450.8 182.9C451.4 186.1 453.9 188.5 457.1 189.2L565.5 211.1C568.1 211.6 570.1 213.5 571.1 216C572.1 218.5 572 221.2 570.6 223.4L509.4 315.6C507.6 318.3 507.6 321.8 509.4 324.4L544.7 377.6C529.7 371.4 513.3 368 496 368C455.5 368 419.5 386.8 396 416.1C394.7 416.1 393.3 416 392 416C386.5 416 381.2 416.4 375.9 417.1C409.4 397.8 432 361.5 432 320C432 258.1 381.9 208 320 208C258.1 208 208 258.1 208 320C208 381.9 258.1 432 320 432C324.6 432 329.1 431.7 333.5 431.2C296.8 451.7 272 491 272 536C272 536.8 272 537.5 272 538.3L223.4 570.6C221.2 572.1 218.4 572.1 216 571.1C213.6 570.1 211.7 568.1 211.1 565.5L189.2 457.1C188.6 453.9 186.1 451.5 182.9 450.8L74.5 428.9C71.9 428.4 69.9 426.5 68.9 424C67.9 421.5 68 418.8 69.4 416.6L130.6 324.4C132.4 321.7 132.4 318.2 130.6 315.6L69.4 223.4C67.9 221.2 67.9 218.4 68.9 216zM336 536C336 505.1 361.1 480 392 480C402.7 480 412.8 483 421.3 488.3C423.5 489.7 426.3 489.9 428.7 488.8C431.1 487.7 432.8 485.6 433.4 483.1C439.4 454 465.2 432.1 496.1 432.1C529.2 432.1 556.5 457.3 559.8 489.5C560 491.7 561.1 493.7 562.9 495C564.7 496.3 566.8 496.9 569 496.6C571.3 496.2 573.7 496.1 576.2 496.1C602.7 496.1 624.2 517.6 624.2 544.1C624.2 570.6 602.7 592.1 576.2 592.1L392.2 592.1C361.3 592.1 336.2 567 336.2 536.1z"/><path fill="currentColor" d="M424 68.9C421.6 67.9 418.8 68 416.6 69.4L324.4 130.6C321.7 132.4 318.2 132.4 315.6 130.6L223.4 69.4C221.2 67.9 218.4 67.9 216 68.9C213.6 69.9 211.7 71.9 211.1 74.5L189.2 182.9C188.6 186.1 186.1 188.5 182.9 189.2L74.5 211.1C71.9 211.6 69.9 213.5 68.9 216C67.9 218.5 68 221.2 69.4 223.4L130.6 315.6C132.4 318.3 132.4 321.8 130.6 324.4L69.4 416.6C67.9 418.8 67.9 421.6 68.9 424C69.9 426.4 71.9 428.3 74.5 428.9L182.9 450.8C186.1 451.4 188.5 453.9 189.2 457.1L211.1 565.5C211.6 568.1 213.5 570.1 216 571.1C218.5 572.1 221.2 572 223.4 570.6L272 538.3C272.1 544.5 272.7 550.5 273.7 556.4L232.2 583.9C224.8 588.8 216.2 588.5 209.8 585.9C203.4 583.3 197.1 577.5 195.4 568.7L174.6 465.4L71.3 444.5C62.5 442.7 56.7 436.4 54.1 430.1L54.1 430.1C51.5 423.8 51.1 415.2 56.1 407.7L114.3 319.9L56.1 232.1C51.2 224.7 51.5 216.1 54.1 209.7C56.7 203.3 62.5 197.1 71.3 195.3L174.6 174.6L195.4 71.3C197.2 62.5 203.5 56.7 209.8 54.1C216.1 51.5 224.7 51.1 232.2 56.1L232.2 56.1L320 114.3L407.8 56.1C415.2 51.2 423.8 51.5 430.2 54.1C436.6 56.7 442.8 62.5 444.6 71.3L465.5 174.5L568.7 195.4C577.5 197.2 583.3 203.5 585.9 209.8C588.5 216.1 588.9 224.7 583.9 232.2L525.7 320L576.3 396.3C566.8 388.6 556.1 382.3 544.7 377.5L509.4 324.3C507.6 321.6 507.6 318.1 509.4 315.5L570.6 223.3C572.1 221.1 572.1 218.3 571.1 215.9C570.1 213.5 568.1 211.6 565.5 211L457.1 189.2C453.9 188.6 451.5 186.1 450.8 182.9L428.9 74.5C428.4 71.9 426.5 69.9 424 68.9zM208 320C208 258.1 258.1 208 320 208C381.9 208 432 258.1 432 320C432 381.9 381.9 432 320 432C258.1 432 208 381.9 208 320zM320 416C373 416 416 373 416 320C416 267 373 224 320 224C267 224 224 267 224 320C224 373 267 416 320 416zM433.3 483C432.8 485.6 431 487.7 428.6 488.7C426.2 489.7 423.5 489.5 421.2 488.2C412.7 483 402.7 479.9 391.9 479.9C361 479.9 335.9 505 335.9 535.9C335.9 566.8 361 591.9 391.9 591.9L575.9 591.9C602.4 591.9 623.9 570.4 623.9 543.9C623.9 517.4 602.4 495.9 575.9 495.9C573.5 495.9 571.1 496.1 568.7 496.4C566.5 496.7 564.3 496.1 562.6 494.8C560.9 493.5 559.8 491.5 559.5 489.3C556.2 457 529 431.9 495.8 431.9C464.9 431.9 439.1 453.8 433.1 482.9zM496 416C534.7 416 567 443.5 574.4 480C609.9 479.1 640 508.5 640 544C640 579.3 611.3 608 576 608L392 608C352.2 608 320 575.8 320 536C320 496.2 352.2 464 392 464C402.1 464 411.7 466.1 420.4 469.8C431.2 438.5 461 416 496 416z"/></svg>