<svg xmlns="http://www.w3.org/2000/svg" viewBox="0 0 640 640"><!--! Font Awesome Pro 7.0.1 by @fontawesome - https://fontawesome.com License - https://fontawesome.com/license (Commercial License) Copyright 2025 Fonticons, Inc. --><path opacity=".4" fill="currentColor" d="M68.9 216C69.9 213.6 71.9 211.7 74.5 211.1L182.9 189.2C186.1 188.6 188.5 186.1 189.2 182.9L211.1 74.5C211.6 71.9 213.5 69.9 216 68.9C218.5 67.9 221.2 68 223.4 69.4L315.6 130.6C318.3 132.4 321.8 132.4 324.4 130.6L416.6 69.4C418.8 67.9 421.6 67.9 424 68.9C426.4 69.9 428.3 71.9 428.9 74.5L450.8 182.9C451.4 186.1 453.9 188.5 457.1 189.2L565.5 211.1C568.1 211.6 570.1 213.5 571.1 216C572.1 218.5 572 221.2 570.6 223.4L509.4 315.6C507.6 318.3 507.6 321.8 509.4 324.4L548.9 384C590.9 384 296 384 411.9 384C424.6 365.9 432 343.8 432 320C432 258.1 381.9 208 320 208C258.1 208 208 258.1 208 320C208 343.8 215.4 365.9 228.1 384C270.8 384-24.6 384 91.1 384L130.6 324.4C132.4 321.7 132.4 318.2 130.6 315.6L69.4 223.4C67.9 221.2 67.9 218.4 68.9 216z"/><path fill="currentColor" d="M416.6 69.4C418.8 67.9 421.6 67.9 424 68.9C426.4 69.9 428.3 71.9 428.9 74.5L450.8 182.9C451.4 186.1 453.9 188.5 457.1 189.2L565.5 211.1C568.1 211.6 570.1 213.5 571.1 216C572.1 218.5 572 221.2 570.6 223.4L509.4 315.6C507.6 318.3 507.6 321.8 509.4 324.4L548.9 384L568.1 384L525.6 320L583.8 232.2C588.7 224.8 588.4 216.2 585.8 209.8C583.2 203.4 577.4 197.2 568.6 195.4L465.4 174.6L444.6 71.3C442.8 62.5 436.5 56.7 430.2 54.1C423.9 51.5 415.3 51.1 407.8 56.1L320 114.3L232.2 56.1L232.2 56.1C224.8 51.2 216.2 51.5 209.8 54.1C203.4 56.7 197.2 62.6 195.4 71.3L174.6 174.6L71.3 195.4C62.5 197.2 56.7 203.5 54.1 209.8C51.5 216.1 51.1 224.7 56.1 232.2L114.3 320L71.8 384L91 384L130.5 324.4C132.3 321.7 132.3 318.2 130.5 315.6L69.4 223.4C67.9 221.2 67.9 218.4 68.9 216C69.9 213.6 71.9 211.7 74.5 211.1L182.9 189.2C186.1 188.6 188.5 186.1 189.2 182.9L211.1 74.5C211.6 71.9 213.5 69.9 216 68.9C218.5 67.9 221.2 68 223.4 69.4L315.6 130.6C318.3 132.4 321.8 132.4 324.4 130.6L416.6 69.4zM432 320C432 258.1 381.9 208 320 208C258.1 208 208 258.1 208 320C208 343.8 215.4 365.9 228.1 384L248.5 384C233.3 367 224 344.6 224 320C224 267 267 224 320 224C373 224 416 267 416 320C416 344.6 406.8 367 391.5 384L411.9 384C424.6 365.9 432 343.8 432 320zM544 456C544 451.6 540.4 448 536 448L40 448C35.6 448 32 451.6 32 456C32 460.4 35.6 464 40 464L536 464C540.4 464 544 460.4 544 456zM96 552C96 556.4 99.6 560 104 560L216 560C220.4 560 224 556.4 224 552C224 547.6 220.4 544 216 544L104 544C99.6 544 96 547.6 96 552zM272 552C272 556.4 275.6 560 280 560L600 560C604.4 560 608 556.4 608 552C608 547.6 604.4 544 600 544L280 544C275.6 544 272 547.6 272 552z"/></svg>