<svg xmlns="http://www.w3.org/2000/svg" viewBox="0 0 640 640"><!--! Font Awesome Pro 7.0.1 by @fontawesome - https://fontawesome.com License - https://fontawesome.com/license (Commercial License) Copyright 2025 Fonticons, Inc. --><path opacity=".4" fill="currentColor" d="M69.2 216C70.2 213.6 72.2 211.7 74.8 211.1L183.2 189.2C186.4 188.6 188.8 186.1 189.5 182.9L211.4 74.5C211.9 71.9 213.8 69.9 216.3 68.9C218.8 67.9 221.5 68 223.7 69.4L315.9 130.6C318.6 132.4 322.1 132.4 324.7 130.6L416.9 69.4C419.1 67.9 421.9 67.9 424.3 68.9C426.7 69.9 428.6 71.9 429.2 74.5L449.5 174.8C430 194.3 410.6 213.7 391.1 233.2C371.8 217.4 347.2 208 320.3 208C258.4 208 208.3 258.1 208.3 320C208.3 346.9 217.8 371.5 233.5 390.8C214 410.3 194.6 429.7 175.1 449.2L74.8 428.9C72.2 428.4 70.2 426.5 69.2 424C68.2 421.5 68.3 418.8 69.7 416.6L130.9 324.4C132.7 321.7 132.7 318.2 130.9 315.6L69.7 223.4C68.2 221.2 68.2 218.4 69.2 216z"/><path fill="currentColor" d="M444.8 71.3L463 161.2L449.4 174.8L429.1 74.5C428.6 71.9 426.7 69.9 424.2 68.9C421.7 67.9 419 68 416.8 69.4L324.7 130.6C322 132.4 318.5 132.4 315.9 130.6L223.7 69.4C221.5 67.9 218.7 67.9 216.3 68.9C213.9 69.9 212 71.9 211.4 74.5L189.5 182.9C188.9 186.1 186.4 188.5 183.2 189.2L74.8 211.1C72.2 211.6 70.2 213.5 69.2 216C68.2 218.5 68.3 221.2 69.7 223.4L130.9 315.6C132.7 318.3 132.7 321.8 130.9 324.4L69.7 416.6C68.2 418.8 68.2 421.6 69.2 424C70.2 426.4 72.2 428.3 74.8 428.9L175.1 449.2L161.5 462.8L71.6 444.6C62.8 442.8 57 436.5 54.4 430.2L54.4 430.2C51.8 423.9 51.4 415.3 56.4 407.8L114.6 320L56.4 232.2C51.5 224.8 51.8 216.2 54.4 209.8C57 203.4 62.8 197.2 71.6 195.4L174.8 174.6L195.7 71.3C197.5 62.5 203.8 56.7 210.1 54.1C216.4 51.5 225 51.1 232.5 56.1L232.5 56.1L320.3 114.3L408.1 56.1C415.5 51.2 424.1 51.5 430.5 54.1C436.9 56.7 443 62.6 444.8 71.3zM320.3 208C347.2 208 371.8 217.5 391.1 233.2L379.7 244.6C363.4 231.7 342.7 224 320.3 224C267.3 224 224.3 267 224.3 320C224.3 342.4 232 363.1 244.9 379.4L233.5 390.8C217.7 371.5 208.3 346.9 208.3 320C208.3 258.1 258.4 208 320.3 208zM528.3 224C528.3 215.2 535.5 208 544.3 208C553.1 208 560.3 215.2 560.3 224C560.3 232.8 553.1 240 544.3 240C535.5 240 528.3 232.8 528.3 224zM464.3 288C473.1 288 480.3 295.2 480.3 304C480.3 312.8 473.1 320 464.3 320C455.5 320 448.3 312.8 448.3 304C448.3 295.2 455.5 288 464.3 288zM528.3 384C528.3 375.2 535.5 368 544.3 368C553.1 368 560.3 375.2 560.3 384C560.3 392.8 553.1 400 544.3 400C535.5 400 528.3 392.8 528.3 384zM464.3 448C473.1 448 480.3 455.2 480.3 464C480.3 472.8 473.1 480 464.3 480C455.5 480 448.3 472.8 448.3 464C448.3 455.2 455.5 448 464.3 448zM224.3 528C233.1 528 240.3 535.2 240.3 544C240.3 552.8 233.1 560 224.3 560C215.5 560 208.3 552.8 208.3 544C208.3 535.2 215.5 528 224.3 528zM384.3 528C393.1 528 400.3 535.2 400.3 544C400.3 552.8 393.1 560 384.3 560C375.5 560 368.3 552.8 368.3 544C368.3 535.2 375.5 528 384.3 528zM528.3 544C528.3 535.2 535.5 528 544.3 528C553.1 528 560.3 535.2 560.3 544C560.3 552.8 553.1 560 544.3 560C535.5 560 528.3 552.8 528.3 544zM304.3 448C313.1 448 320.3 455.2 320.3 464C320.3 472.8 313.1 480 304.3 480C295.5 480 288.3 472.8 288.3 464C288.3 455.2 295.5 448 304.3 448zM368.3 384C368.3 375.2 375.5 368 384.3 368C393.1 368 400.3 375.2 400.3 384C400.3 392.8 393.1 400 384.3 400C375.5 400 368.3 392.8 368.3 384z"/></svg>