<svg xmlns="http://www.w3.org/2000/svg" viewBox="0 0 640 640"><!--! Font Awesome Pro 7.0.1 by @fontawesome - https://fontawesome.com License - https://fontawesome.com/license (Commercial License) Copyright 2025 Fonticons, Inc. --><path opacity=".4" fill="currentColor" d="M224 320C224 373 267 416 320 416C373 416 416 373 416 320C416 267 373 224 320 224C267 224 224 267 224 320z"/><path fill="currentColor" d="M320 576C315.6 576 312 572.4 312 568L312 480C312 475.6 315.6 472 320 472C324.4 472 328 475.6 328 480L328 568C328 572.4 324.4 576 320 576zM320 168C315.6 168 312 164.4 312 160L312 72C312 67.6 315.6 64 320 64C324.4 64 328 67.6 328 72L328 160C328 164.4 324.4 168 320 168zM139 501C135.9 497.9 135.9 492.8 139 489.7L201.2 427.5C204.3 424.4 209.4 424.4 212.5 427.5C215.6 430.6 215.6 435.7 212.5 438.8L150.3 501C147.2 504.1 142.1 504.1 139 501zM427.5 212.5C424.4 209.4 424.4 204.3 427.5 201.2L489.7 139C492.8 135.9 497.9 135.9 501 139C504.1 142.1 504.1 147.2 501 150.3L438.8 212.5C435.7 215.6 430.6 215.6 427.5 212.5zM568 328L480 328C475.6 328 472 324.4 472 320C472 315.6 475.6 312 480 312L568 312C572.4 312 576 315.6 576 320C576 324.4 572.4 328 568 328zM160 328L72 328C67.6 328 64 324.4 64 320C64 315.6 67.6 312 72 312L160 312C164.4 312 168 315.6 168 320C168 324.4 164.4 328 160 328zM501 501C497.9 504.1 492.8 504.1 489.7 501L427.5 438.8C424.4 435.7 424.4 430.6 427.5 427.5C430.6 424.4 435.7 424.4 438.8 427.5L501 489.7C504.1 492.8 504.1 497.9 501 501zM212.5 212.5C209.4 215.6 204.3 215.6 201.2 212.5L139 150.3C135.9 147.2 135.9 142.1 139 139C142.1 135.9 147.2 135.9 150.3 139L212.5 201.2C215.6 204.3 215.6 209.4 212.5 212.5zM416 320C416 267 373 224 320 224C267 224 224 267 224 320C224 373 267 416 320 416C373 416 416 373 416 320zM208 320C208 258.1 258.1 208 320 208C381.9 208 432 258.1 432 320C432 381.9 381.9 432 320 432C258.1 432 208 381.9 208 320z"/></svg>