<svg xmlns="http://www.w3.org/2000/svg" viewBox="0 0 640 640"><!--! Font Awesome Pro 7.0.1 by @fontawesome - https://fontawesome.com License - https://fontawesome.com/license (Commercial License) Copyright 2025 Fonticons, Inc. --><path opacity=".4" fill="currentColor" d="M69.2 424C70.2 421.6 72.2 419.7 74.8 419.1L183.2 397.2C186.4 396.6 188.8 394.1 189.5 390.9L211.4 282.5C211.9 279.9 213.8 277.9 216.3 276.9C218.8 275.9 221.5 276 223.7 277.4L315.9 338.6C318.6 340.4 322.1 340.4 324.7 338.6L416.9 277.4C419.1 275.9 421.9 275.9 424.3 276.9C426.7 277.9 428.6 279.9 429.2 282.5L451.1 390.9C451.7 394.1 454.2 396.5 457.4 397.2L565.8 419.1C568.4 419.6 570.4 421.5 571.4 424C572.4 426.5 572.3 429.2 570.9 431.4L528 496C563.9 496 338.6 496 427.7 496C413.9 449.7 371.1 416 320.3 416C269.5 416 226.7 449.7 212.9 496C246.4 496 22.9 496 112.6 496L69.7 431.4C68.2 429.2 68.2 426.4 69.2 424z"/><path fill="currentColor" d="M389.9 189.7L325.9 253.7C322.8 256.8 317.7 256.8 314.6 253.7L250.6 189.7C247.5 186.6 247.5 181.5 250.6 178.4C253.7 175.3 258.8 175.3 261.9 178.4L312.2 228.7L312.2 56C312.2 51.6 315.8 48 320.2 48C324.6 48 328.2 51.6 328.2 56L328.2 228.7L378.5 178.4C381.6 175.3 386.7 175.3 389.8 178.4C392.9 181.5 392.9 186.6 389.8 189.7zM424.2 276.9C421.8 275.9 419 276 416.8 277.4L324.6 338.6C321.9 340.4 318.4 340.4 315.8 338.6L223.6 277.4C221.4 275.9 218.6 275.9 216.2 276.9C213.8 277.9 211.9 279.9 211.3 282.5L189.5 390.9C188.9 394.1 186.4 396.5 183.2 397.2L74.8 419.1C72.2 419.6 70.2 421.5 69.2 424C68.2 426.5 68.3 429.2 69.7 431.4L112.6 496L93.4 496L56.4 440.2C51.5 432.7 51.8 424.2 54.4 417.8C57 411.4 62.8 405.1 71.6 403.4L174.8 382.5L195.7 279.3C197.5 270.5 203.8 264.7 210.1 262.1C216.4 259.5 225 259.1 232.5 264.1L232.5 264.1L320.3 322.3L408.1 264.1C415.5 259.2 424.1 259.5 430.5 262.1C436.9 264.7 443.1 270.5 444.9 279.3L465.8 382.5L569 403.4C577.8 405.2 583.6 411.5 586.2 417.8C588.8 424.1 589.2 432.7 584.2 440.2L547.2 496L528 496L570.9 431.4C572.4 429.2 572.4 426.4 571.4 424C570.4 421.6 568.4 419.7 565.8 419.1L457.3 397.2C454.1 396.6 451.7 394.1 451 390.9L429.1 282.5C428.6 279.9 426.7 277.9 424.2 276.9zM427.6 496L410.8 496C397.6 458.7 362.1 432 320.3 432C278.5 432 242.9 458.7 229.8 496L213 496C226.8 449.7 269.6 416 320.4 416C371.2 416 414 449.7 427.8 496zM64.3 568C64.3 563.6 67.9 560 72.3 560L568.3 560C572.7 560 576.3 563.6 576.3 568C576.3 572.4 572.7 576 568.3 576L72.3 576C67.9 576 64.3 572.4 64.3 568z"/></svg>