<svg xmlns="http://www.w3.org/2000/svg" viewBox="0 0 640 640"><!--! Font Awesome Pro 7.0.1 by @fontawesome - https://fontawesome.com License - https://fontawesome.com/license (Commercial License) Copyright 2025 Fonticons, Inc. --><path opacity=".4" fill="currentColor" d="M40 576C44.4 576 48 572.4 48 568L48 544C48 455.6 119.6 384 208 384L304 384C392.4 384 464 455.6 464 544L464 568C464 572.4 467.6 576 472 576L40 576zM368 192C368 253.9 317.9 304 256 304C194.1 304 144 253.9 144 192C144 130.1 194.1 80 256 80C317.9 80 368 130.1 368 192z"/><path fill="currentColor" d="M256 304C317.9 304 368 253.9 368 192C368 130.1 317.9 80 256 80C194.1 80 144 130.1 144 192C144 253.9 194.1 304 256 304zM256 64C326.7 64 384 121.3 384 192C384 262.7 326.7 320 256 320C185.3 320 128 262.7 128 192C128 121.3 185.3 64 256 64zM208 384C119.6 384 48 455.6 48 544L48 568C48 572.4 44.4 576 40 576C35.6 576 32 572.4 32 568L32 544C32 446.8 110.8 368 208 368L304 368C401.2 368 480 446.8 480 544L480 568C480 572.4 476.4 576 472 576C467.6 576 464 572.4 464 568L464 544C464 455.6 392.4 384 304 384L208 384zM544 168C548.4 168 552 171.6 552 176L552 248L624 248C628.4 248 632 251.6 632 256C632 260.4 628.4 264 624 264L552 264L552 336C552 340.4 548.4 344 544 344C539.6 344 536 340.4 536 336L536 264L464 264C459.6 264 456 260.4 456 256C456 251.6 459.6 248 464 248L536 248L536 176C536 171.6 539.6 168 544 168z"/></svg>