<svg xmlns="http://www.w3.org/2000/svg" viewBox="0 0 640 640"><!--! Font Awesome Pro 7.0.1 by @fontawesome - https://fontawesome.com License - https://fontawesome.com/license (Commercial License) Copyright 2025 Fonticons, Inc. --><path opacity=".4" fill="currentColor" d="M40 576C44.4 576 48 572.4 48 568L48 544C48 455.6 119.6 384 208 384L304 384C392.4 384 464 455.6 464 544L464 568C464 572.4 467.6 576 472 576L40 576zM368 192C368 253.9 317.9 304 256 304C194.1 304 144 253.9 144 192C144 130.1 194.1 80 256 80C317.9 80 368 130.1 368 192z"/><path fill="currentColor" d="M256 304C317.9 304 368 253.9 368 192C368 130.1 317.9 80 256 80C194.1 80 144 130.1 144 192C144 253.9 194.1 304 256 304zM256 64C326.7 64 384 121.3 384 192C384 262.7 326.7 320 256 320C185.3 320 128 262.7 128 192C128 121.3 185.3 64 256 64zM208 384C119.6 384 48 455.6 48 544L48 568C48 572.4 44.4 576 40 576C35.6 576 32 572.4 32 568L32 544C32 446.8 110.8 368 208 368L304 368C401.2 368 480 446.8 480 544L480 568C480 572.4 476.4 576 472 576C467.6 576 464 572.4 464 568L464 544C464 455.6 392.4 384 304 384L208 384zM478.8 309.8L532.6 256L478.8 202.2C475.7 199.1 475.7 194 478.8 190.9C481.9 187.8 487 187.8 490.1 190.9L543.9 244.7L597.7 190.9C600.8 187.8 605.9 187.8 609 190.9C612.1 194 612.1 199.1 609 202.2L555.2 256L609 309.8C612.1 312.9 612.1 318 609 321.1C605.9 324.2 600.8 324.2 597.7 321.1L543.9 267.3L490.1 321.1C487 324.2 481.9 324.2 478.8 321.1C475.7 318 475.7 312.9 478.8 309.8z"/></svg>