<svg xmlns="http://www.w3.org/2000/svg" viewBox="0 0 640 640"><!--! Font Awesome Pro 7.0.1 by @fontawesome - https://fontawesome.com License - https://fontawesome.com/license (Commercial License) Copyright 2025 Fonticons, Inc. --><path opacity=".4" fill="currentColor" d="M144 160L144 384C144 410.5 165.5 432 192 432L448 432C474.5 432 496 410.5 496 384L496 160C496 133.5 474.5 112 448 112L192 112C165.5 112 144 133.5 144 160zM241.7 276.9C239 273.4 239.6 268.4 243.1 265.7C246.6 263 251.6 263.6 254.3 267.1L303.2 330L385.2 195.9C387.5 192.1 392.4 190.9 396.2 193.2C400 195.5 401.2 200.4 398.9 204.2L310.9 348.2C309.5 350.4 307.1 351.9 304.5 352C301.9 352.1 299.3 351 297.7 348.9L241.7 276.9z"/><path fill="currentColor" d="M448 112C474.5 112 496 133.5 496 160L496 384C496 410.5 474.5 432 448 432L192 432C165.5 432 144 410.5 144 384L144 160C144 133.5 165.5 112 192 112L448 112zM192 96C156.7 96 128 124.7 128 160L128 384C128 419.3 156.7 448 192 448L448 448C483.3 448 512 419.3 512 384L512 160C512 124.7 483.3 96 448 96L192 96zM40 352C35.6 352 32 355.6 32 360L32 488C32 518.9 57.1 544 88 544L552 544C582.9 544 608 518.9 608 488L608 360C608 355.6 604.4 352 600 352C595.6 352 592 355.6 592 360L592 488C592 510.1 574.1 528 552 528L88 528C65.9 528 48 510.1 48 488L48 360C48 355.6 44.4 352 40 352zM398.8 204.2C401.1 200.4 399.9 195.5 396.1 193.2C392.3 190.9 387.4 192.1 385.1 195.9L303.1 330L254.2 267.1C251.5 263.6 246.5 263 243 265.7C239.5 268.4 238.9 273.4 241.6 276.9L297.6 348.9C299.2 351 301.7 352.1 304.4 352C307.1 351.9 309.4 350.4 310.8 348.2L398.8 204.2z"/></svg>